<svg xmlns="http://www.w3.org/2000/svg" viewBox="0 0 689.21 167.34"><defs><style>.cls-1,.cls-2{fill:#ffffff;}.cls-2{font-size:100px;font-family:Swiss721BT-Heavy, "Swiss 721 BT";font-weight:800;}</style></defs><title>Asset 4</title><g id="Layer_2" data-name="Layer 2"><g id="Warstwa_1" data-name="Warstwa 1"><path class="cls-1" d="M75.16,118.86c.08-1.35.17-2.63.28-3.85H31.32c.11,1.22.2,2.5.28,3.85Z"/><path class="cls-1" d="M74.47,126.56c.21-1.2.37-2.48.48-3.85H31.81c.11,1.37.27,2.65.48,3.85Z"/><path class="cls-1" d="M33.19,130.4c3.65,11.92,13,12.68,20.17,12.68h0c7.18,0,16.52-.76,20.17-12.68Z"/><path class="cls-1" d="M97.5,54.26s0-.06,0-.1A44.13,44.13,0,1,0,11.27,67.39l-.06,0a44.15,44.15,0,0,0,7,13.6h0c6.81,11,11,16.54,12.73,30.15H75.85C77.61,97.55,81.77,92,88.58,81h0a44,44,0,0,0,8.93-26.62S97.5,54.31,97.5,54.26ZM17.09,64.45a38.05,38.05,0,0,1,72.58-22.9Z"/><path class="cls-1" d="M15.34,53A38,38,0,0,1,89.67,41.55l-2.22.7,16.82-5.31-.7-1.79-2-5.56-8.44.4-6.86-8.94,2.59-8.14L84,9.63,79.14,6.36l-6.75,5.16L61.57,8.14,59,0H47.27L44.69,8.14,33.86,11.52,27.11,6.36,22.24,9.63l-4.86,3.28L20,21.05,13.11,30l-8.44-.4-2,5.56-2,5.56,6.75,5.17L7,57.2,0,61.67l1.49,5.66L2,69.21l15.1-4.76A38,38,0,0,1,15.34,53Z"/><text class="cls-2" transform="translate(134.71 143.44)">IDEAS LAB</text></g></g></svg>