<?xml version="1.0" encoding="utf-8"?>
<!-- Generator: Adobe Illustrator 22.0.1, SVG Export Plug-In . SVG Version: 6.00 Build 0)  -->
<svg version="1.1" id="Layer_1" xmlns="http://www.w3.org/2000/svg" xmlns:xlink="http://www.w3.org/1999/xlink" x="0px" y="0px"
	 viewBox="0 0 689.2 167.3" style="enable-background:new 0 0 689.2 167.3;" xml:space="preserve">
<style type="text/css">
	.st0{fill:#ffffff;}
	.st1{enable-background:new    ;}
</style>
<title>Asset 4</title>
<g id="Layer_2_1_">
	<g id="Warstwa_1">
		<path class="st0" d="M75.2,118.9c0.1-1.3,0.2-2.6,0.3-3.8H31.3c0.1,1.2,0.2,2.5,0.3,3.8H75.2z"/>
		<path class="st0" d="M74.5,126.6c0.2-1.2,0.4-2.5,0.5-3.8H31.8c0.1,1.4,0.3,2.7,0.5,3.8H74.5z"/>
		<path class="st0" d="M33.2,130.4c3.7,11.9,13,12.7,20.2,12.7l0,0c7.2,0,16.5-0.8,20.2-12.7H33.2z"/>
		<path class="st0" d="M97.5,54.3C97.5,54.3,97.5,54.2,97.5,54.3C97.5,29.8,77.7,10,53.4,10S9.2,29.8,9.2,54.2c0,4.5,0.7,8.9,2,13.2
			h-0.1c1.5,4.9,3.9,9.5,7,13.6l0,0c6.8,11,11,16.5,12.7,30.2h44.9C77.6,97.5,81.8,92,88.6,81l0,0c5.8-7.7,8.9-17,8.9-26.6
			C97.5,54.4,97.5,54.3,97.5,54.3z M17.1,64.4c-6.3-20,4.8-41.4,24.8-47.7s41.4,4.8,47.7,24.8L17.1,64.4z"/>
		<path class="st0" d="M15.3,53C15.2,32,32,14.9,53,14.7c16.8-0.1,31.7,10.8,36.6,26.9l-2.2,0.7l16.8-5.3l-0.7-1.8l-2-5.6L93.1,30
			L86.3,21l2.6-8.1L84,9.6l-4.9-3.3l-6.8,5.2L61.6,8.1L59,0H47.3l-2.6,8.1l-10.8,3.4l-6.8-5.2l-4.9,3.3l-4.9,3.3L20,21l-6.9,9
			l-8.4-0.4l-2,5.6l-2,5.6l6.8,5.2L7,57.2l-7,4.5l1.5,5.7L2,69.2l15.1-4.8C15.9,60.7,15.3,56.9,15.3,53z"/>
		<g class="st1">
			<path class="st0" d="M141.5,143.4V71.9H156v71.6H141.5z"/>
			<path class="st0" d="M169.7,71.9h26.4c6,0,10.5,0.5,13.6,1.4c4.2,1.2,7.8,3.4,10.8,6.6c3,3.2,5.3,7,6.8,11.6
				c1.6,4.6,2.3,10.2,2.3,16.9c0,5.9-0.7,11-2.2,15.2c-1.8,5.2-4.3,9.4-7.7,12.6c-2.5,2.4-5.9,4.3-10.2,5.7c-3.2,1-7.5,1.5-12.8,1.5
				h-27.2V71.9z M184.2,84v47.4H195c4,0,6.9-0.2,8.7-0.7c2.3-0.6,4.3-1.6,5.8-3c1.5-1.4,2.8-3.7,3.8-6.9c1-3.2,1.5-7.6,1.5-13.1
				c0-5.5-0.5-9.8-1.5-12.7c-1-3-2.3-5.3-4.1-6.9s-4-2.8-6.7-3.4c-2-0.5-6-0.7-11.9-0.7H184.2z"/>
			<path class="st0" d="M242,143.4V71.9h53.1V84h-38.6v15.9h35.9v12.1h-35.9v19.5h40v12.1H242z"/>
			<path class="st0" d="M373.2,143.4h-15.7l-6.3-16.3h-28.6l-5.9,16.3h-15.3l27.9-71.6h15.3L373.2,143.4z M346.6,115.1l-9.9-26.6
				l-9.7,26.6H346.6z"/>
			<path class="st0" d="M377.2,120.1l14.1-1.4c0.8,4.7,2.6,8.2,5.2,10.4c2.6,2.2,6.1,3.3,10.5,3.3c4.7,0,8.2-1,10.5-3
				c2.4-2,3.5-4.3,3.5-6.9c0-1.7-0.5-3.1-1.5-4.3c-1-1.2-2.7-2.2-5.2-3.1c-1.7-0.6-5.5-1.6-11.6-3.1c-7.7-1.9-13.2-4.3-16.3-7.1
				c-4.4-3.9-6.6-8.7-6.6-14.4c0-3.6,1-7.1,3.1-10.2s5-5.6,8.9-7.3s8.6-2.5,14.1-2.5c9,0,15.7,2,20.3,5.9c4.5,3.9,6.9,9.2,7.2,15.8
				L418.9,93c-0.6-3.7-1.9-6.3-4-7.9s-5.1-2.4-9.2-2.4c-4.2,0-7.5,0.9-9.9,2.6c-1.5,1.1-2.3,2.6-2.3,4.4c0,1.7,0.7,3.1,2.1,4.3
				c1.8,1.5,6.3,3.1,13.3,4.8s12.2,3.4,15.6,5.2c3.4,1.8,6,4.2,7.9,7.3s2.9,6.9,2.9,11.4c0,4.1-1.1,7.9-3.4,11.5
				c-2.3,3.6-5.5,6.2-9.7,8s-9.4,2.6-15.6,2.6c-9,0-16-2.1-20.8-6.3C381.1,134.3,378.2,128.2,377.2,120.1z"/>
			<path class="st0" d="M475.8,143.4v-71h14.5v58.9h35.9v12.1H475.8z"/>
			<path class="st0" d="M601,143.4h-15.7l-6.3-16.3h-28.6l-5.9,16.3h-15.3l27.9-71.6h15.3L601,143.4z M574.4,115.1l-9.9-26.6
				l-9.7,26.6H574.4z"/>
			<path class="st0" d="M608.7,71.9h28.6c5.7,0,9.9,0.2,12.7,0.7c2.8,0.5,5.3,1.5,7.5,3c2.2,1.5,4,3.5,5.5,6s2.2,5.3,2.2,8.4
				c0,3.4-0.9,6.4-2.7,9.2c-1.8,2.8-4.3,4.9-7.3,6.3c4.4,1.3,7.7,3.4,10.1,6.5c2.3,3.1,3.5,6.7,3.5,10.8c0,3.3-0.8,6.4-2.3,9.5
				s-3.6,5.5-6.2,7.4c-2.6,1.8-5.9,3-9.7,3.4c-2.4,0.3-8.2,0.4-17.4,0.5h-24.4V71.9z M623.2,83.8v16.6h9.5c5.6,0,9.1-0.1,10.5-0.2
				c2.5-0.3,4.4-1.1,5.8-2.6s2.1-3.3,2.1-5.6c0-2.2-0.6-4-1.8-5.4c-1.2-1.4-3-2.2-5.4-2.5c-1.4-0.2-5.5-0.2-12.4-0.2H623.2z
				 M623.2,112.2v19.1h13.4c5.2,0,8.5-0.1,9.9-0.4c2.1-0.4,3.9-1.3,5.2-2.9c1.4-1.5,2-3.5,2-6.1c0-2.1-0.5-4-1.6-5.5
				c-1-1.5-2.5-2.6-4.5-3.3s-6.2-1-12.8-1H623.2z"/>
		</g>
	</g>
</g>
</svg>
