<?xml version="1.0" encoding="utf-8"?>
<!-- Generator: Adobe Illustrator 22.0.1, SVG Export Plug-In . SVG Version: 6.00 Build 0)  -->
<svg version="1.1" id="Layer_1" xmlns="http://www.w3.org/2000/svg" xmlns:xlink="http://www.w3.org/1999/xlink" x="0px" y="0px"
	 viewBox="0 0 103.9 144.7" style="enable-background:new 0 0 103.9 144.7;" xml:space="preserve">
<style type="text/css">
	.st0{fill:#ffffff;}
</style>
<title>Asset 4</title>
<g id="Layer_2_1_">
	<g id="Warstwa_1">
		<path class="st0" d="M74.9,119c0.1-1.3,0.2-2.6,0.3-3.8H31c0.1,1.2,0.2,2.5,0.3,3.8H74.9z"/>
		<path class="st0" d="M74.3,126.7c0.2-1.2,0.4-2.5,0.5-3.8H31.5c0.1,1.4,0.3,2.6,0.5,3.8H74.3z"/>
		<path class="st0" d="M33,130.5c3.7,11.9,13,12.7,20.2,12.7l0,0c7.2,0,16.5-0.8,20.2-12.7H33z"/>
		<path class="st0" d="M97.3,54.4C97.3,54.4,97.3,54.3,97.3,54.4c0-24.5-19.8-44.2-44.1-44.2C28.8,10.1,8.9,29.9,8.9,54.3
			c0,4.5,0.7,8.9,2,13.2h-0.1c1.5,4.9,3.9,9.5,7,13.6l0,0c6.8,11,11,16.5,12.7,30.2h44.9c1.8-13.6,5.9-19.1,12.7-30.1l0,0
			c5.8-7.7,8.9-17,8.9-26.6C97.3,54.5,97.3,54.4,97.3,54.4z M16.9,64.5c-6.3-20,4.8-41.4,24.8-47.7s41.4,4.8,47.7,24.8L16.9,64.5z"
			/>
		<path class="st0" d="M15,53.1C15,32.1,31.8,15,52.8,14.8c16.8-0.1,31.7,10.8,36.6,26.9l-2.2,0.7l16.8-5.3l-0.7-1.8l-2-5.6
			l-8.4,0.4l-6.8-9l2.6-8.1l-4.9-3.3l-4.9-3.3L72,11.6L61.2,8.2l-2.5-8.1H47l-2.6,8.1l-10.8,3.4l-6.8-5.2L22,9.7L17.1,13l2.7,8.1
			l-6.9,9l-8.4-0.4l-2,5.6l-2,5.6l6.8,5.2L6.8,57.3l-7,4.5l1.5,5.7l0.5,1.8l15.1-4.8C15.6,60.8,15,57,15,53.1z"/>
	</g>
</g>
</svg>
