<?xml version="1.0" encoding="utf-8"?>
<!-- Generator: Adobe Illustrator 22.0.1, SVG Export Plug-In . SVG Version: 6.00 Build 0)  -->
<svg version="1.1" id="Layer_1" xmlns="http://www.w3.org/2000/svg" xmlns:xlink="http://www.w3.org/1999/xlink" x="0px" y="0px"
	 viewBox="0 0 1417.3 1417.3" style="enable-background:new 0 0 1417.3 1417.3;" xml:space="preserve">
<style type="text/css">
	.st0{fill:#282828;}
	.st1{fill:none;stroke:#282828;stroke-width:5;stroke-miterlimit:10;}
</style>
<polygon class="st0" points="273.5,953.8 254,953.8 249.5,937 277.8,937 "/>
<polygon class="st0" points="1160.4,953.8 1141,953.8 1136.5,937 1164.8,937 "/>
<polygon class="st0" points="502.5,839.6 590,839.6 627.7,848 464.8,848 "/>
<path class="st0" d="M590,839.6l-82.2-172.3c-0.9-1.8-1.3-3.7-1.3-5.6v-59v-23.1v-27.9c0-5.3-4.3-9.5-9.5-9.5h-15.5
	c-5.2,0-9.5,4.3-9.5,9.5v15h-14.2c-7.1,0-12.9,5.8-12.9,12.9v126.1c0,2,0.5,3.9,1.3,5.6l55,115c0.9,1.8,1.3,3.7,1.3,5.6v7.7H590z
	 M495.7,616.2c0,4.1-3.4,7.5-7.5,7.5h-23c-4.1,0-7.5-3.4-7.5-7.5v-23c0-4.1,3.4-7.5,7.5-7.5h23c4.1,0,7.5,3.4,7.5,7.5V616.2z"/>
<g>
	<rect x="236.8" y="866" class="st0" width="944.2" height="4.1"/>
	<rect x="236.8" y="859.1" class="st0" width="944.2" height="4"/>
	<rect x="236.8" y="872.8" class="st0" width="944.2" height="65.2"/>
	<path class="st0" d="M1187,847.9H230.2c-3.2,0-5.8,2.6-5.8,5.8v51.5c0,0.4,0,0.7,0.1,1.1V938h8v-90h4.3v8.3H1181V848h4.3v90h7.5
		v-32.8V866v-12.3C1192.8,850.5,1190.2,847.9,1187,847.9z"/>
</g>
<rect x="427.8" y="764.5" class="st0" width="92.3" height="12"/>
<rect x="422.3" y="517" class="st0" width="35.4" height="15"/>
<path class="st1" d="M451.5,524.5c0,0,6.5-41.5,20.5-41.5s17.3,74.5,17.3,74.5"/>
<path class="st0" d="M435.3,474.3h-23.2c-3.4,0-6.2,2.8-6.2,6.2v289.8c0,3.4,2.8,6.2,6.2,6.2h23.2c3.4,0,6.2-2.8,6.2-6.2V480.5
	C441.5,477.1,438.7,474.3,435.3,474.3z M441.5,500.6H406v-4.3h35.5V500.6z"/>
</svg>
