<?xml version="1.0" encoding="utf-8"?>
<!-- Generator: Adobe Illustrator 22.0.1, SVG Export Plug-In . SVG Version: 6.00 Build 0)  -->
<svg version="1.1" id="Layer_1" xmlns="http://www.w3.org/2000/svg" xmlns:xlink="http://www.w3.org/1999/xlink" x="0px" y="0px"
	 viewBox="0 0 1417.3 1417.3" style="enable-background:new 0 0 1417.3 1417.3;" xml:space="preserve">
<style type="text/css">
	.st0{fill:#282828;}
</style>
<path class="st0" d="M1008.6,221.7H408.7c-35.2,0-63.7,28.5-63.7,63.7V972c0,35.2,28.5,63.7,63.7,63.7h4.2
	c-26.8,0-48.5-21.7-48.5-48.5V289.3c0-26.8,21.7-48.5,48.5-48.5h591.5c26.8,0,48.5,21.7,48.5,48.5v697.9c0,26.8-21.7,48.5-48.5,48.5
	h4.2c35.2,0,63.7-28.5,63.7-63.7V285.4C1072.3,250.2,1043.8,221.7,1008.6,221.7z"/>
<path class="st0" d="M1008.6,1167.6H408.7c-35.2,0-63.7-28.5-63.7-63.7v-99.2c0-35.2,28.5-63.7,63.7-63.7h599.9
	c35.2,0,63.7,28.5,63.7,63.7v99.2C1072.3,1139.1,1043.8,1167.6,1008.6,1167.6z"/>
<path class="st0" d="M374.9,820.7v46.8h224.8c2.8-3.2,6.8-5.3,11.4-5.3h195.1c4.6,0,8.7,2.1,11.4,5.3h224.9v-46.8H374.9z"/>
<path class="st0" d="M821.2,877.2c0,8.3-6.7,15-15,15H611.1c-8.3,0-15-6.7-15-15h-251v211.6h727.2V877.2H821.2z"/>
<rect x="491.4" y="346.1" class="st0" width="434.6" height="498"/>
<path class="st0" d="M914.6,455.7H502.8c-22.6,0-41-18.4-41-41v-70.2c0-22.6,18.4-41,41-41h411.8c22.6,0,41,18.4,41,41v70.2
	C955.6,437.3,937.2,455.7,914.6,455.7z"/>
</svg>
