<?xml version="1.0" encoding="utf-8"?>
<!-- Generator: Adobe Illustrator 22.0.1, SVG Export Plug-In . SVG Version: 6.00 Build 0)  -->
<svg version="1.1" id="Layer_1" xmlns="http://www.w3.org/2000/svg" xmlns:xlink="http://www.w3.org/1999/xlink" x="0px" y="0px"
	 viewBox="0 0 1417.3 1417.3" style="enable-background:new 0 0 1417.3 1417.3;" xml:space="preserve">
<style type="text/css">
	.st0{fill:#3C3C3B;}
	.st1{fill:#FFFFFF;}
	.st2{fill:none;stroke:#FFFFFF;stroke-width:30;stroke-linecap:round;stroke-miterlimit:10;}
</style>
<path class="st0" d="M1008.6,1035.7H408.7c-35.2,0-63.7-28.5-63.7-63.7V285.4c0-35.2,28.5-63.7,63.7-63.7h599.9
	c35.2,0,63.7,28.5,63.7,63.7V972C1072.3,1007.2,1043.8,1035.7,1008.6,1035.7z"/>
<path class="st1" d="M1004.4,1035.7H412.9c-26.8,0-48.5-21.7-48.5-48.5V289.3c0-26.8,21.7-48.5,48.5-48.5h591.5
	c26.8,0,48.5,21.7,48.5,48.5v697.9C1052.9,1014,1031.2,1035.7,1004.4,1035.7z"/>
<path class="st0" d="M1008.6,1167.6H408.7c-35.2,0-63.7-28.5-63.7-63.7v-99.2c0-35.2,28.5-63.7,63.7-63.7h599.9
	c35.2,0,63.7,28.5,63.7,63.7v99.2C1072.3,1139.1,1043.8,1167.6,1008.6,1167.6z"/>
<rect x="345.1" y="877.2" class="st0" width="727.2" height="211.6"/>
<rect x="374.9" y="820.7" class="st0" width="667.6" height="46.8"/>
<line class="st2" x1="611.1" y1="877.2" x2="806.2" y2="877.2"/>
<rect x="491.4" y="346.1" class="st0" width="434.6" height="498"/>
<path class="st0" d="M914.6,455.7H502.8c-22.6,0-41-18.4-41-41v-70.2c0-22.6,18.4-41,41-41h411.8c22.6,0,41,18.4,41,41v70.2
	C955.6,437.3,937.2,455.7,914.6,455.7z"/>
</svg>
