<?xml version="1.0" encoding="utf-8"?>
<!-- Generator: Adobe Illustrator 22.0.1, SVG Export Plug-In . SVG Version: 6.00 Build 0)  -->
<svg version="1.1" id="Layer_1" xmlns="http://www.w3.org/2000/svg" xmlns:xlink="http://www.w3.org/1999/xlink" x="0px" y="0px"
	 viewBox="0 0 1417.3 1417.3" style="enable-background:new 0 0 1417.3 1417.3;" xml:space="preserve">
<style type="text/css">
	.st0{fill:#3C3C3B;}
	.st1{fill:none;stroke:#3C3C3B;stroke-width:38;stroke-miterlimit:10;}
	.st2{fill:none;stroke:#3C3C3B;stroke-width:14;stroke-miterlimit:10;}
	.st3{fill:none;stroke:#FFFFFF;stroke-width:38;stroke-miterlimit:10;}
	.st4{fill:none;stroke:#3C3C3B;stroke-width:23;stroke-miterlimit:10;}
</style>
<rect x="238.6" y="242.1" class="st0" width="138.9" height="932.9"/>
<rect x="1032.6" y="242.1" class="st0" width="138.9" height="932.9"/>
<rect x="635.6" y="-154.9" transform="matrix(-1.836970e-16 1 -1 -1.836970e-16 1016.515 -393.4856)" class="st0" width="138.9" height="932.9"/>
<line class="st1" x1="339.2" y1="436.7" x2="436.7" y2="339.2"/>
<line class="st1" x1="978.8" y1="344.2" x2="1076.3" y2="441.7"/>
<polygon class="st0" points="1035.5,1097.4 374.6,1097.4 408.7,1013.4 999.6,1013.4 "/>
<line class="st2" x1="351" y1="525.9" x2="1074.9" y2="525.9"/>
<line class="st2" x1="358" y1="615.2" x2="1081.9" y2="615.2"/>
<path class="st0" d="M566.4,650.4h-79.5c-7.5,0-13.5-6-13.5-13.5V497.4c0-7.5,6-13.5,13.5-13.5h79.5c7.5,0,13.5,6,13.5,13.5v139.5
	C579.9,644.4,573.9,650.4,566.4,650.4z"/>
<rect x="364" y="1103.9" class="st0" width="677.4" height="71"/>
<polygon class="st0" points="937.8,1220.4 461.8,1220.4 472,1121.9 926.9,1121.9 "/>
<line class="st3" x1="189.8" y1="1128.8" x2="287.3" y2="1226.3"/>
<line class="st3" x1="1220.2" y1="1126.2" x2="1122.7" y2="1223.7"/>
<rect x="165.8" y="492.8" class="st0" width="142.2" height="142.2"/>
<line class="st3" x1="214.6" y1="444.1" x2="117.1" y2="541.6"/>
<path class="st4" d="M213.8,567.2c0,0-6,138.7-36,260.7s126,269.6,126,269.6"/>
<path class="st4" d="M351,451.8c0,0,112.8-14,164.8,54"/>
</svg>
