<?xml version="1.0" encoding="utf-8"?>
<!-- Generator: Adobe Illustrator 22.0.1, SVG Export Plug-In . SVG Version: 6.00 Build 0)  -->
<svg version="1.1" id="Layer_1" xmlns="http://www.w3.org/2000/svg" xmlns:xlink="http://www.w3.org/1999/xlink" x="0px" y="0px"
	 viewBox="0 0 1417.3 1417.3" style="enable-background:new 0 0 1417.3 1417.3;" xml:space="preserve">
<style type="text/css">
	.st0{fill:#282828;}
</style>
<rect x="340.5" y="467.3" class="st0" width="42.9" height="731.7"/>
<rect x="1037" y="467.3" class="st0" width="42.9" height="731.7"/>
<rect x="340.5" y="667.3" class="st0" width="739.3" height="148.1"/>
<rect x="990.9" y="343" class="st0" width="128.9" height="118.9"/>
<polygon class="st0" points="1119.9,343 990.9,343 990.9,275.5 1101.6,275.5 "/>
<polygon class="st0" points="880,514.5 880,533 382.2,533 382.2,514.5 340.5,514.5 340.5,557.9 1079.8,557.9 1079.8,514.5 "/>
<path class="st0" d="M297.5,290.5v171.4h84.7v-94.2H880v94.2h102.7V290.5H297.5z M930.6,367.6h-599V343h599V367.6z"/>
<rect x="343.7" y="1204.4" class="st0" width="36.4" height="35.7"/>
<rect x="1040.2" y="1204.4" class="st0" width="36.4" height="35.7"/>
</svg>
